<svg xmlns="http://www.w3.org/2000/svg" viewBox="-0.01 -0.01 1.02 1.02">
	<path d="M 0 0 C 0 1 1 1 1 0 C 0 0 0 1 1 1 C 1 0 0 0 0 1 C 1 1 1 0 0 0 C 1 0 0 1 1 1 M 1 0 C 0 0 1 1 0 1 C 0 0 0 0 1 0 C 1 1 0 0 0 1 C 1 1 1 1 1 0 M 1 1 C 1 0 0 1 0 0 C 0 1 1 1 1 1 C 1 0 1 0 0 0 C 0 0 1 0 1 1 C 0 1 0 1 0 0 M 0 1 C 0 1 1 1 1 0 C 1 0 0 0 0 1 C 1 0 1 1 1 0 C 0 1 0 0 0 1 C 1 0 0 0 1 0 C 0 1 1 1 0 1 M 1 1 C 0 0 0 1 0 0 C 1 1 1 0 1 1 C 0 0 1 0 0 0 C 1 1 0 1 1 1" stroke="#000" stroke-width="0.001" fill="none"/>
</svg>