<svg xmlns="http://www.w3.org/2000/svg" viewBox="-0.001 -0.001 10 10">
	<path d="M 0 0 L 10 5 L 0 10 L 5 0 L 10 10 L 0 5 L 10 0 L 5 10 L 0 0 M 2 4 L 4 2 L 6 2 L 8 4 L 8 6 L 6 8 L 4 8 L 2 6 L 2 4 L 8 6 L 4 2 L 6 8 L 6 2 L 4 8 L 8 4 L 2 6 L 8 6 M 2 4 L 8 4 M 4 2 L 4 8 M 4 4 L 6 6 M 6 4 L 4 6 M 5 4 L 5 6 M 2 4 L 6 8 M 2 6 L 6 2 M 3 5 L 7 5 M 5 3 L 5 7 M 3 5 L 5 4 L 7 5 L 5 6 L 3 5 M 5 3 L 4 5 L 5 7 L 6 5 L 5 3 M 4 5 L 5 4 L 6 5 L 5 6 L 4 5 M 4 6 L 6 5 L 4 4 M 6 4 L 4 5 L 6 6 L 5 4 L 4 6 M 4 4 L 5 6 L 6 4 M 2 4 L 2 2 L 8 2 L 8 8 L 2 8 L 2 6 L 8 8 L 6 2 L 2 8 L 8 6 L 2 2 L 4 8 L 8 2 L 2 4 L 8 8 L 4 2 L 0 5 L 4 8 L 10 10 L 8 4 L 5 0 L 0 5 L 5 10 L 10 5 L 5 0 L 5 10 M 0 5 L 10 5 M 2 8 L 4 2 M 2 8 L 8 2 M 2 8 L 8 4 M 2 8 L 5 2 L 8 8 M 2 2 L 5 8 L 8 2 M 2 2 L 8 4 M 2 2 L 8 8 M 2 2 L 6 8 L 8 2 L 2 6 M 2 4 L 6 8 M 2 6 L 5 10 M 2 4 L 10 5 L 2 6 M 0 5 L 8 4 M 0 5 L 8 6 M 6 2 L 10 5 L 6 8 M 2 4 L 5 0 M 5 10 L 8 6 M 5 0 L 4 8 M 5 0 L 6 8" stroke="#000" stroke-width="0.001" fill="none"/>
</svg>