<svg xmlns="http://www.w3.org/2000/svg" viewBox="-0.001 -0.001 100 100">
	<path d="M 0 0 L 100 100 M 100 0 L 0 100 M 1 0 L 99 100 M 0 1 L 100 99 M 2 0 L 98 100 M 0 2 L 100 98 M 3 0 L 97 100 M 0 3 L 100 97 M 4 0 L 96 100 M 0 4 L 100 96 M 5 0 L 95 100 M 0 5 L 100 95 M 6 0 L 94 100 M 0 6 L 100 94 M 7 0 L 93 100 M 0 7 L 100 93 M 8 0 L 92 100 M 0 8 L 100 92 M 9 0 L 91 100 M 0 9 L 100 91 M 10 0 L 90 100 M 0 10 L 100 90 M 11 0 L 89 100 M 0 11 L 100 89 M 12 0 L 88 100 M 0 12 L 100 88 M 13 0 L 87 100 M 0 13 L 100 87 M 14 0 L 86 100 M 0 14 L 100 86 M 15 0 L 85 100 M 0 15 L 100 85 M 16 0 L 84 100 M 0 16 L 100 84 M 17 0 L 83 100 M 0 17 L 100 83 M 18 0 L 82 100 M 0 18 L 100 82 M 19 0 L 81 100 M 0 19 L 100 81 M 20 0 L 80 100 M 0 20 L 100 80 M 21 0 L 79 100 M 0 21 L 100 79 M 22 0 L 78 100 M 0 22 L 100 78 M 23 0 L 77 100 M 0 23 L 100 77 M 24 0 L 76 100 M 0 24 L 100 76 M 25 0 L 75 100 M 0 25 L 100 75 M 26 0 L 74 100 M 0 26 L 100 74 M 27 0 L 73 100 M 0 27 L 100 73 M 28 0 L 72 100 M 0 28 L 100 72 M 29 0 L 71 100 M 0 29 L 100 71 M 30 0 L 70 100 M 0 30 L 100 70 M 31 0 L 69 100 M 0 31 L 100 69 M 32 0 L 68 100 M 0 32 L 100 68 M 33 0 L 67 100 M 0 33 L 100 67 M 34 0 L 66 100 M 0 34 L 100 66 M 35 0 L 65 100 M 0 35 L 100 65 M 36 0 L 64 100 M 0 36 L 100 64 M 37 0 L 63 100 M 0 37 L 100 63 M 38 0 L 62 100 M 0 38 L 100 62 M 39 0 L 61 100 M 0 39 L 100 61 M 40 0 L 60 100 M 0 40 L 100 60 M 41 0 L 59 100 M 0 41 L 100 59 M 42 0 L 58 100 M 0 42 L 100 58 M 43 0 L 57 100 M 0 43 L 100 57 M 44 0 L 56 100 M 0 44 L 100 56 M 45 0 L 55 100 M 0 45 L 100 55 M 46 0 L 54 100 M 0 46 L 100 54 M 47 0 L 53 100 M 0 47 L 100 53 M 48 0 L 52 100 M 0 48 L 100 52 M 49 0 L 51 100 M 0 49 L 100 51 M 50 0 L 50 100 M 0 50 L 100 50 M 51 0 L 49 100 M 0 51 L 100 49 M 52 0 L 48 100 M 0 52 L 100 48 M 53 0 L 47 100 M 0 53 L 100 47 M 54 0 L 46 100 M 0 54 L 100 46 M 55 0 L 45 100 M 0 55 L 100 45 M 56 0 L 44 100 M 0 56 L 100 44 M 57 0 L 43 100 M 0 57 L 100 43 M 58 0 L 42 100 M 0 58 L 100 42 M 59 0 L 41 100 M 0 59 L 100 41 M 60 0 L 40 100 M 0 60 L 100 40 M 61 0 L 39 100 M 0 61 L 100 39 M 62 0 L 38 100 M 0 62 L 100 38 M 63 0 L 37 100 M 0 63 L 100 37 M 64 0 L 36 100 M 0 64 L 100 36 M 65 0 L 35 100 M 0 65 L 100 35 M 66 0 L 34 100 M 0 66 L 100 34 M 67 0 L 33 100 M 0 67 L 100 33 M 68 0 L 32 100 M 0 68 L 100 32 M 69 0 L 31 100 M 0 69 L 100 31 M 70 0 L 30 100 M 0 70 L 100 30 M 71 0 L 29 100 M 0 71 L 100 29 M 72 0 L 28 100 M 0 72 L 100 28 M 73 0 L 27 100 M 0 73 L 100 27 M 74 0 L 26 100 M 0 74 L 100 26 M 75 0 L 25 100 M 0 75 L 100 25 M 76 0 L 24 100 M 0 76 L 100 24 M 77 0 L 23 100 M 0 77 L 100 23 M 78 0 L 22 100 M 0 78 L 100 22 M 79 0 L 21 100 M 0 79 L 100 21 M 80 0 L 20 100 M 0 80 L 100 20 M 81 0 L 19 100 M 0 81 L 100 19 M 82 0 L 18 100 M 0 82 L 100 18 M 83 0 L 17 100 M 0 83 L 100 17 M 84 0 L 16 100 M 0 84 L 100 16 M 85 0 L 15 100 M 0 85 L 100 15 M 86 0 L 14 100 M 0 86 L 100 14 M 87 0 L 13 100 M 0 87 L 100 13 M 88 0 L 12 100 M 0 88 L 100 12 M 89 0 L 11 100 M 0 89 L 100 11 M 90 0 L 10 100 M 0 90 L 100 10 M 91 0 L 9 100 M 0 91 L 100 9 M 92 0 L 8 100 M 0 92 L 100 8 M 93 0 L 7 100 M 0 93 L 100 7 M 94 0 L 6 100 M 0 94 L 100 6 M 95 0 L 5 100 M 0 95 L 100 5 M 96 0 L 4 100 M 0 96 L 100 4 M 97 0 L 3 100 M 0 97 L 100 3 M 98 0 L 2 100 M 0 98 L 100 2 M 99 0 L 1 100 M 0 99 L 100 1" stroke="#000" stroke-width="0.1" fill="none"/>
</svg>